<?xml version="1.0" encoding="utf-8"?>
<!-- Generator: Adobe Illustrator 17.0.0, SVG Export Plug-In . SVG Version: 6.00 Build 0)  -->
<!DOCTYPE svg PUBLIC "-//W3C//DTD SVG 1.1//EN" "http://www.w3.org/Graphics/SVG/1.1/DTD/svg11.dtd">
<svg version="1.1" id="Layer_1" xmlns="http://www.w3.org/2000/svg" xmlns:xlink="http://www.w3.org/1999/xlink" x="0px" y="0px"
	 width="266.467px" height="41.317px" viewBox="0 0 266.467 41.317" enable-background="new 0 0 266.467 41.317"
	 xml:space="preserve">
<rect x="0" fill="#FFFAFF" stroke="#000000" stroke-miterlimit="10" width="266.467" height="41.317"/>
<g>
	<path fill="#000008" d="M56.015,26.736h-5.211l-1.079,2.451h-1.443l4.44-9.805h1.387l4.455,9.805h-1.471L56.015,26.736z
		 M55.524,25.615l-2.115-4.805l-2.115,4.805H55.524z"/>
	<path fill="#000008" d="M73.351,19.382l-3.278,9.805h-1.471l-2.675-7.83l-2.676,7.83h-1.499l-3.278-9.805h1.443l2.647,7.97
		l2.759-7.97h1.289l2.704,8.012l2.704-8.012H73.351z"/>
	<path fill="#000008" d="M80.991,26.736H75.78l-1.079,2.451h-1.443l4.44-9.805h1.387l4.455,9.805h-1.471L80.991,26.736z
		 M80.501,25.615l-2.115-4.805l-2.115,4.805H80.501z"/>
	<path fill="#000008" d="M84.991,19.382h1.401v9.805h-1.401V19.382z"/>
	<path fill="#000008" d="M88.435,28.066l0.519-1.093c0.728,0.659,1.975,1.135,3.235,1.135c1.695,0,2.423-0.658,2.423-1.513
		c0-2.396-5.939-0.882-5.939-4.524c0-1.513,1.177-2.802,3.754-2.802c1.149,0,2.339,0.308,3.152,0.869l-0.462,1.121
		c-0.854-0.546-1.821-0.798-2.689-0.798c-1.667,0-2.381,0.7-2.381,1.555c0,2.396,5.939,0.896,5.939,4.497
		c0,1.499-1.205,2.788-3.796,2.788C90.69,29.299,89.219,28.795,88.435,28.066z"/>
	<path fill="#000008" d="M108.585,24.228h1.345v3.824c-0.981,0.827-2.339,1.247-3.712,1.247c-3.011,0-5.225-2.115-5.225-5.015
		c0-2.899,2.213-5.015,5.253-5.015c1.555,0,2.872,0.519,3.768,1.513l-0.869,0.868c-0.813-0.784-1.737-1.135-2.843-1.135
		c-2.27,0-3.908,1.583-3.908,3.768c0,2.157,1.639,3.768,3.894,3.768c0.826,0,1.597-0.182,2.297-0.63
		C108.585,27.421,108.585,24.228,108.585,24.228z"/>
	<path fill="#000008" d="M121.032,19.382v9.805h-1.401v-4.37H114v4.37h-1.401v-9.805H114v4.216h5.631v-4.216H121.032z"/>
	<path fill="#000008" d="M130.213,26.736h-5.21l-1.079,2.451h-1.442l4.44-9.805h1.387l4.454,9.805h-1.471L130.213,26.736z
		 M129.723,25.615l-2.115-4.805l-2.114,4.805H129.723z"/>
	<path fill="#000008" d="M135.615,20.6v3.417h4.917v1.205h-4.917v3.964h-1.4v-9.805h6.92V20.6H135.615z"/>
	<path fill="#000008" d="M144.505,20.6v3.417h4.917v1.205h-4.917v3.964h-1.4v-9.805h6.92V20.6H144.505z"/>
	<path fill="#000008" d="M157.793,26.736h-5.21l-1.079,2.451h-1.442l4.44-9.805h1.387l4.454,9.805h-1.471L157.793,26.736z
		 M157.303,25.615l-2.115-4.805l-2.114,4.805H157.303z"/>
	<path fill="#000008" d="M168.35,29.187l-2.115-3.012c-0.196,0.014-0.406,0.028-0.616,0.028h-2.424v2.983h-1.4v-9.805h3.824
		c2.549,0,4.09,1.289,4.09,3.417c0,1.513-0.784,2.605-2.157,3.096l2.325,3.292h-1.527V29.187z M168.308,22.799
		c0-1.4-0.938-2.199-2.731-2.199h-2.382v4.412h2.382C167.37,25.013,168.308,24.2,168.308,22.799z"/>
	<path fill="#000008" d="M175.654,24.956v-5.575h1.4V24.9c0,2.171,0.995,3.151,2.76,3.151s2.773-0.98,2.773-3.151v-5.519h1.359
		v5.575c0,2.844-1.556,4.343-4.146,4.343C177.223,29.299,175.654,27.8,175.654,24.956z"/>
	<path fill="#000008" d="M195.245,19.382v9.805h-1.148l-5.884-7.312v7.312h-1.4v-9.805h1.148l5.884,7.312v-7.312H195.245z"/>
	<path fill="#000008" d="M198.18,19.382h1.4v9.805h-1.4V19.382z"/>
	<path fill="#000008" d="M210.939,19.382l-4.3,9.805h-1.387l-4.314-9.805h1.513l3.529,8.054l3.559-8.054H210.939z"/>
	<path fill="#000008" d="M219.296,27.968v1.219h-7.116v-9.805h6.92V20.6h-5.52v3.011h4.917v1.191h-4.917v3.166H219.296z"/>
	<path fill="#000008" d="M228.116,29.187l-2.115-3.012c-0.196,0.014-0.406,0.028-0.616,0.028h-2.424v2.983h-1.4v-9.805h3.824
		c2.549,0,4.09,1.289,4.09,3.417c0,1.513-0.784,2.605-2.157,3.096l2.325,3.292h-1.527V29.187z M228.074,22.799
		c0-1.4-0.938-2.199-2.731-2.199h-2.382v4.412h2.382C227.135,25.013,228.074,24.2,228.074,22.799z"/>
	<path fill="#000008" d="M230.841,28.066l0.519-1.093c0.729,0.659,1.975,1.135,3.235,1.135c1.695,0,2.424-0.658,2.424-1.513
		c0-2.396-5.939-0.882-5.939-4.524c0-1.513,1.177-2.802,3.754-2.802c1.148,0,2.339,0.308,3.151,0.869l-0.462,1.121
		c-0.854-0.546-1.821-0.798-2.689-0.798c-1.667,0-2.381,0.7-2.381,1.555c0,2.396,5.938,0.896,5.938,4.497
		c0,1.499-1.204,2.788-3.796,2.788C233.096,29.299,231.626,28.795,230.841,28.066z"/>
	<path fill="#000008" d="M240.431,19.382h1.4v9.805h-1.4V19.382z"/>
	<path fill="#000008" d="M246.719,20.6h-3.362v-1.219h8.11V20.6h-3.361v8.586h-1.387V20.6z"/>
	<path fill="#000008" d="M256.631,25.797v3.39h-1.387v-3.418l-3.894-6.387h1.498l3.138,5.168l3.152-5.168h1.387L256.631,25.797z"/>
</g>
<line fill="none" x1="37.296" y1="70.382" x2="48.296" y2="90.632"/>
<polygon fill="#000B00" points="8.155,35.838 25.476,5.838 42.796,35.838 "/>
</svg>
